<?xml version="1.0" encoding="utf-8"?>
<!-- Generator: Adobe Illustrator 23.1.1, SVG Export Plug-In . SVG Version: 6.00 Build 0)  -->
<svg version="1.1" id="Layer_1" xmlns="http://www.w3.org/2000/svg" xmlns:xlink="http://www.w3.org/1999/xlink" x="0px" y="0px"
	 viewBox="0 0 432.2 80" style="enable-background:new 0 0 432.2 80;" xml:space="preserve">
<g>
	<g>
		<path d="M405.6,53.3V58h9.7V13.3h-10l0,0v24c0,3.7-0.9,6.5-2.8,8.4c-1.9,1.9-4.4,3.1-7.5,3.1c-2.8,0-5-0.9-6.9-2.8
			c-1.9-1.9-2.8-4.4-2.8-7.2V13.4h-9.7V39c0,5.6,1.6,10.9,5,14.3c3.1,3.4,7.5,5,12.8,5h0.1C398.4,58.2,402.8,56.3,405.6,53.3
			L405.6,53.3z"/>
		<g>
			<path d="M30.7,48.9c-10.6,0-19-8.4-19-19s8.4-19,19-19c6.2,0,12.2,3.1,15.6,8.1l8.4-5c-5-7.8-14-12.8-24-12.8
				c-15.9,0-29,13.1-29,29s13.1,29,29,29c10,0,18.7-5,24-12.8l-8.4-5C42.5,45.8,36.9,48.9,30.7,48.9z"/>
		</g>
		<rect x="421.8" y="1.2" width="9.7" height="56.7"/>
		<polygon points="259,1.5 243.1,28.6 227.2,1.5 214.7,1.5 214.7,58 224.4,58 224.4,15.8 239.7,41.7 246.5,41.7 262.1,15.8 
			262.1,58 271.8,58 271.8,1.5 		"/>
		<path d="M195.1,23.3h13.1v-9.7h-13.1V1.5h-9.7v38.1v1.9c0,9.7,4.4,16.8,16.5,16.8h6.2v-10h-5.6c-6.9,0-7.8-3.4-7.8-6.9v-1.6
			L195.1,23.3L195.1,23.3z"/>
		<path d="M148.3,36.1c0-0.3,0-0.3,0-0.6V13.4h-9.7v4.1c-3.7-2.8-8.1-4.1-12.8-4.1c-12.5,0-22.8,10.3-22.8,22.8S113.3,59,125.8,59
			c5,0,9-1.6,12.8-4.1V58h9.7V37.1C148.3,36.4,148.3,36.4,148.3,36.1z M125.5,48.9c-6.9,0-12.8-5.6-12.8-12.8s5.6-12.8,12.8-12.8
			c6.9,0,12.8,5.6,12.8,12.8S132.7,48.9,125.5,48.9z"/>
		<path d="M298.6,58.9c-12.5,0-22.8-10.3-22.8-22.8s10.3-22.8,22.8-22.8s22.8,10.3,22.8,22.8C321.1,48.6,311.1,58.9,298.6,58.9z
			 M298.6,23.3c-6.9,0-12.8,5.6-12.8,12.8s5.6,12.8,12.8,12.8c7.2,0,12.8-5.6,12.8-12.8C311.4,29.3,305.8,23.3,298.6,23.3z"/>
		<g>
			<path d="M354.5,66.3c-2.3,1.9-5.1,2.6-8.1,2.6H346c-5-0.3-9.4-2.5-12.2-6.2l-6.9,6.9c3.7,5.6,11.2,9,19.3,9l0,0
				c6.2,0,11.5-2.2,16.2-6.9c4.1-4.4,6.2-9.4,6.2-15.6c0,0,0-0.9,0-1.6c0-0.3,0-1.9,0-1.9V13.4h-9.4l0,0l0,0v3.7
				c-3.7-2.5-8.1-3.7-12.8-3.7c-12.5,0-22.8,10.3-22.8,22.8S333.9,59,346.4,59c4.7,0,9-1.6,12.8-3.7c0,0,0,0.1,0,0.3
				c0,0.1,0,0.3,0,0.5c0,0.7-0.1,2.3-0.3,3.3C358.3,62.1,356.7,64.4,354.5,66.3L354.5,66.3z M346.6,48.9c-6.9,0-12.8-5.6-12.8-12.8
				s5.6-12.8,12.8-12.8c7.2,0,12.8,5.6,12.8,12.8S353.5,48.9,346.6,48.9z"/>
		</g>
		<g>
			<path d="M88.5,36.1V58h9.6V33.3v-0.9c0-11.5-8.1-19-19-19c-3.7,0-7.8,1.2-10.9,3.1l0,0V1.1h-9.4V58h9.7V35.8c0-0.3,0-1.5,0-1.5
				c0-6.6,4.4-11.1,10-11.1s10,4.5,10,11.1C88.5,34.5,88.5,35.5,88.5,36.1z"/>
		</g>
	</g>
	<g>
		<g>
			<path d="M166,28.6c-0.9,1.7-1.3,3.4-1.3,5.5v24.1H155V13.6h9.7v3.7c0.5-0.3,1.3-0.8,3.4-1.7c2-0.8,5.9-2,11-2.1
				c0.2,0,1.2,0,1.9,0l0,0v9.7l0,0c-0.1,0-0.9,0-1.7,0c-0.3,0-2.2,0-3.4,0.1c-0.9,0.1-3.5,0.3-5.6,1.2C168,25.6,166.7,27.3,166,28.6
				z"/>
		</g>
	</g>
</g>
</svg>
